<?xml version="1.0" encoding="utf-8"?>
<!-- Generator: Adobe Illustrator 22.0.1, SVG Export Plug-In . SVG Version: 6.00 Build 0)  -->
<svg version="1.1" id="Слой_1" xmlns="http://www.w3.org/2000/svg" xmlns:xlink="http://www.w3.org/1999/xlink" x="0px" y="0px"
	 viewBox="0 0 200 200" xml:space="preserve">
<g>
	<path class="st0" d="M72.2,50.7c-5.8-1.3-11-5.1-15.5-11.3c0-0.2,0-0.4,0-0.6H44.8c0,18.6-9.6,29.3-27.4,29.3V43.8H5.6v42.9
		c0,25.2,14.1,40.8,39.3,40.8c25.3,0,39.2-15.5,39.2-40.5v-43H72.2V50.7z M44.8,116.3c-17.9,0-27.3-10.8-27.3-29.6V72.8l0.1,6.5
		c19.7,0,32.4-9.4,37.1-25.3c5.4,4.9,11.3,7.8,17.6,8.8V87C72.2,105.6,62.6,116.3,44.8,116.3z"/>
	<path class="st0" d="M39.6,99.7l-2.6,2.7c6.1,5.9,13.1,5.4,19-0.6l-2.9-2.8C48.8,103.6,44,103.9,39.6,99.7z"/>
	<path class="st0" d="M41.7,27.8c0.3,2.4,2.4,4.3,4.9,4.3c2.5,0,4.6-1.9,4.9-4.3c4.6,0.7,9.1,2.4,13.6,5.1c3.5-2.1,6.9-4.7,10.2-8
		L67,16.4c-5.1,5-10.4,8.2-15.7,9.4c-0.6-2.1-2.5-3.6-4.8-3.6c-2.4,0-4.3,1.6-4.8,3.8c-5.1-1-10.1-4-14.9-8.8l-7.9,7.9
		c3.1,3.2,6.3,5.7,9.5,7.7C32.8,30.2,37.2,28.5,41.7,27.8z"/>
	<path class="st0" d="M61.7,69.4c-2.7,0-5,2.2-5,5c0,2.7,2.2,5,5,5c2.7,0,5-2.2,5-5C66.6,71.6,64.4,69.4,61.7,69.4z"/>
	<polygon class="st0" points="6.2,154.6 8.5,155.6 16.1,141.8 23.8,155.6 26.1,154.6 16.2,137.1 	"/>
	<path class="st0" d="M42.6,146.7c0,4-2.1,6.3-5.9,6.3c-3.8,0-5.9-2.3-5.9-6.3v-9.2h-2.5v9.2c0,5.4,3,8.7,8.4,8.7
		c5.4,0,8.4-3.3,8.4-8.7v-9.2h-2.5V146.7z"/>
	<polygon class="st0" points="70.6,155.1 81.5,155.1 81.5,152.8 73.1,152.8 73.1,147.4 81.5,147.4 81.5,145 73.1,145 73.1,139.7 
		81.5,139.7 81.5,137.4 70.6,137.4 	"/>
	<path class="st0" d="M66.1,151.3v-4.7l0,0v-9.2h-2.5v4.7h0v4.5c0,4-2.1,6.3-5.9,6.3c-3.8,0-5.9-2.3-5.9-6.3v-9.2h-2.5v9.2
		c0,5.4,3,8.7,8.4,8.7c2.6,0,4.6-0.8,6-2.1c0.7,4.3,3.6,6.8,8.3,6.8l0-2.4C68.1,157.7,66.1,155.3,66.1,151.3z"/>
	<path class="st0" d="M99.9,146.7c0,4-2.1,6.3-5.9,6.3c-3.8,0-5.9-2.3-5.9-6.3v-9.2h-2.5v9.2c0,5.4,3,8.7,8.4,8.7
		c5.4,0,8.4-3.3,8.4-8.7v-9.2h-2.5V146.7z"/>
	<path class="st0" d="M100.1,132.9l-1.8-1.8c-2.8,2.8-5.9,3-8.6,0.3l-1.7,1.7C91.8,137,96.3,136.7,100.1,132.9z"/>
	<path class="st0" d="M114.7,152.9c-3.9,0-7.2-3-7.2-6.7c0-3.7,3.3-6.7,7.2-6.7c2,0,3.9,1,6.4,3.1l1.9-1.7c-3.1-2.7-5.6-3.9-8.3-3.9
		c-5.4,0-9.8,4.1-9.8,9.1c0,5,4.4,9.1,9.9,9.1c2.7,0,5.1-1,8.3-3.9l-1.9-1.7C118.5,152.1,116.7,152.9,114.7,152.9z"/>
	<polygon class="st0" points="123.8,139.6 130.6,139.6 130.6,155 133.1,155 133.1,139.6 139.9,139.6 139.9,137.3 123.8,137.3 	"/>
	<polygon class="st0" points="161.4,154.6 163.7,155.6 171.3,141.7 179,155.6 181.3,154.6 171.4,137 	"/>
	<path class="st0" d="M189.2,144.7h-2.8v-7.2h-2.5v17.7h5.3c3.3,0,5.8-2.1,5.8-5.2C195,146.8,192.4,144.7,189.2,144.7z M189.2,152.9
		h-2.7v-5.9h2.7c1.7,0,3.2,1.1,3.2,2.9C192.4,151.8,190.9,152.9,189.2,152.9z"/>
	<path class="st0" d="M156.6,146.6c0,4-2.1,6.3-5.9,6.3c-3.8,0-5.9-2.3-5.9-6.3v-9.2h-2.5v9.2c0,5.4,3,8.7,8.4,8.7
		c5.4,0,8.4-3.3,8.4-8.7v-9.2h-2.5V146.6z"/>
	<path class="st0" d="M195,52.3c0-6-5.4-11-11.9-11c-1.2,0-2.3,0.2-3.5,0.5V18.7h-11.9v10.6c-7.8,0.1-14.9-3.9-20.8-11.9
		c0-0.2,0-0.4,0-0.6h-11.9c0,16.7-7.7,27-22.1,28.9V18.6h-11.9v42.9c0,25.2,14.1,40.8,39.3,40.8c25,0,38.8-15.1,39.1-39.6
		c1.2,0.4,2.3,0.6,3.5,0.6C189.6,63.3,195,58.3,195,52.3z M140.3,91.1c-17.8,0-27.3-10.8-27.3-29.6v-4.4
		c16.8-1.5,27.7-10.6,31.9-25.1c6.9,6.2,14.6,9.3,22.8,9.3v20.5C167.8,80.4,158.2,91.1,140.3,91.1z M181.7,56.2
		c-0.7,0-1.4-0.2-2.1-0.5v-8.2c0.7-0.4,1.4-0.5,2.1-0.5c2.7,0,4.9,2.1,4.9,4.6C186.7,54.1,184.4,56.2,181.7,56.2z"/>
	<path class="st0" d="M134.9,116.6c0.3,2.4,2.4,4.3,4.9,4.3c2.5,0,4.6-1.9,4.9-4.3c4.6,0.7,9.1,2.4,13.6,5.1c3.5-2.1,6.9-4.7,10.2-8
		l-8.3-8.5c-5.1,5-10.4,8.2-15.7,9.4c-0.6-2.1-2.5-3.6-4.8-3.6c-2.3,0-4.3,1.6-4.8,3.8c-5.1-1-10.1-4-14.9-8.8l-7.9,7.9
		c3.1,3.2,6.3,5.7,9.5,7.7C126.1,119,130.5,117.3,134.9,116.6z"/>
	<path class="st0" d="M130,77.7l-2.6,2.7c6.1,5.9,13.1,5.4,19-0.6l-2.9-2.8C139.1,81.6,134.3,81.9,130,77.7z"/>
	<path class="st0" d="M152,47.4c-2.7,0-5,2.2-5,5c0,2.7,2.2,5,5,5c2.7,0,5-2.2,5-5C156.9,49.6,154.7,47.4,152,47.4z"/>
</g>
</svg>
