<?xml version="1.0" encoding="utf-8"?>
<!-- Generator: Adobe Illustrator 22.0.1, SVG Export Plug-In . SVG Version: 6.00 Build 0)  -->
<svg version="1.1" id="Слой_1" xmlns="http://www.w3.org/2000/svg" xmlns:xlink="http://www.w3.org/1999/xlink" x="0px" y="0px"
	 viewBox="0 0 200 200" style="enable-background:new 0 0 200 200;" xml:space="preserve">
<style type="text/css">
	.st0{fill:url(#SVGID_1_);}
</style>
<g>
	<linearGradient id="SVGID_1_" gradientUnits="userSpaceOnUse" x1="27.0176" y1="25.819" x2="131.0176" y2="149.4857">
		<stop  offset="0" style="stop-color:#38B69A"/>
		<stop  offset="1" style="stop-color:#208D9E"/>
	</linearGradient>
	<path class="st0" d="M12,102c0-44.7,33.9-79.2,79.5-79.2c29.1,0,54.9,15.3,67.8,38.4L120,84c-5.1-10.5-15.9-16.8-29.1-16.8
		C71.4,67.2,57,81.3,57,102s14.4,34.8,33.9,34.8c13.2,0,24.3-6.3,29.1-16.8l39.3,22.5c-12.9,23.4-38.4,38.7-67.8,38.7
		C45.9,181.2,12,146.7,12,102z"/>
</g>
<g>
	<path d="M101.7,89.6c0-1.7,1.3-3.1,3.1-3.1c1.1,0,2.1,0.6,2.6,1.4l-0.4,0.2c-0.4-0.7-1.2-1.2-2.2-1.2c-1.6,0-2.7,1.2-2.7,2.7
		s1.1,2.7,2.7,2.7c1,0,1.8-0.5,2.2-1.3l0.4,0.2c-0.5,0.9-1.5,1.5-2.6,1.5C103,92.7,101.7,91.3,101.7,89.6z"/>
	<path d="M111.8,92.1v0.4h-3.3v-6h0.5v5.6H111.8z"/>
	<path d="M112.6,90.6v-4h0.5v4c0,1,0.6,1.7,1.7,1.7c1.1,0,1.8-0.7,1.8-1.7v-4h0.5v4c0,1.3-0.9,2.1-2.2,2.1
		C113.5,92.7,112.6,91.8,112.6,90.6z"/>
	<path d="M122.6,90.9c0,0.9-0.7,1.6-1.6,1.6h-2.6v-6h2.4c0.9,0,1.6,0.7,1.6,1.6c0,0.6-0.3,1.1-0.8,1.3
		C122.2,89.7,122.6,90.2,122.6,90.9z M118.9,87v2.3h1.9c0.6,0,1.1-0.5,1.1-1.2s-0.5-1.2-1.1-1.2H118.9z M122.2,90.9
		c0-0.7-0.5-1.2-1.2-1.2h-2.1v2.4h2.1C121.6,92.1,122.2,91.6,122.2,90.9z"/>
</g>
<g>
	<path d="M143.2,106.1c0,6.3-4.9,9.6-10.4,9.6c-4.3,0-8.2-1.9-10-6.1l5.6-3.3c0.7,1.9,1.9,3,4.4,3c2.7,0,3.9-1.4,3.9-3.2
		s-1.2-3.2-3.9-3.2h-1.3l-2.5-3.7l5.2-6.6h-10.5v-6.1h18.4v5.3l-4.9,6.3C140.7,99.3,143.2,102.1,143.2,106.1z"/>
	<path d="M166.5,105.6c0,5.9-4.3,10.1-10.6,10.1c-6.3,0-10.6-4.2-10.6-10.1c0-2.2,0.6-4.2,1.7-5.8l8.7-13.3h7.5l-6.2,9
		C162.7,96,166.5,100,166.5,105.6z M160,105.6c0-2.5-1.9-4-4.1-4c-2.2,0-4.1,1.4-4.1,4c0,2.5,1.9,4,4.1,4
		C158.1,109.5,160,108,160,105.6z"/>
	<path d="M168.5,100.8c0-8.8,4.2-14.9,11.6-14.9s11.6,6,11.6,14.9c0,8.8-4.2,14.9-11.6,14.9S168.5,109.6,168.5,100.8z M185.3,100.8
		c0-5.5-1.7-8.5-5.1-8.5c-3.4,0-5.1,3-5.1,8.5c0,5.5,1.7,8.5,5.1,8.5C183.6,109.3,185.3,106.3,185.3,100.8z"/>
</g>
<g>
	<path d="M188.8,86.2c0-1.8,0.8-3,2.2-3s2.2,1.2,2.2,3s-0.8,3-2.2,3S188.8,88,188.8,86.2z M192.7,86.2c0-1.7-0.7-2.6-1.8-2.6
		c-1.1,0-1.8,1-1.8,2.6c0,1.7,0.7,2.6,1.8,2.6C192.1,88.8,192.7,87.9,192.7,86.2z"/>
</g>
</svg>
