<?xml version="1.0" encoding="utf-8"?>
<!-- Generator: Adobe Illustrator 22.0.1, SVG Export Plug-In . SVG Version: 6.00 Build 0)  -->
<svg version="1.1" id="Слой_1" xmlns="http://www.w3.org/2000/svg" xmlns:xlink="http://www.w3.org/1999/xlink" x="0px" y="0px"
	 viewBox="0 0 200 200" style="enable-background:new 0 0 200 200;" xml:space="preserve">
<style type="text/css">
	.st0{clip-path:url(#SVGID_2_);fill:#00B99A;}
	.st1{clip-path:url(#SVGID_2_);}
	.st2{fill:#E56B2E;}
	.st3{fill:#EBEBEB;}
	.st4{fill:#FEDAC6;}
	.st5{fill:#DBDBDB;}
	.st6{fill:#D65B25;}
	.st7{fill:#F5C4B0;}
	.st8{fill:#FECB66;}
	.st9{fill:#F5AD76;}
	.st10{fill:#70C385;}
	.st11{fill:none;stroke:#FFFFFF;stroke-width:4;stroke-linecap:round;stroke-linejoin:round;stroke-miterlimit:10;}
</style>
<g>
	<g>
		<defs>
			<path id="SVGID_1_" d="M84,26C37.6,26,0,63.7,0,110c0,25.4,11.3,48.2,29.2,63.6c-0.1,0.1-0.1,0.2-0.2,0.2
				C43.7,186.4,62.7,194,83.5,194c20,0,38.3-7,52.7-18.6c-0.1-0.2-0.2-0.3-0.3-0.5c0.1,0.1,0.2,0.2,0.2,0.4c0.1,0.1,0.2,0.2,0.3,0.2
				c19.2-15.4,31.5-39,31.5-65.5C168,63.7,130.4,26,84,26z M35.3,168.1c0.4-0.2,0.7-0.4,1.1-0.6C36,167.7,35.7,167.9,35.3,168.1z
				 M135.4,174c0,0,0.1,0.1,0.1,0.1C135.5,174.1,135.4,174,135.4,174z"/>
		</defs>
		<clipPath id="SVGID_2_">
			<use xlink:href="#SVGID_1_"  style="overflow:visible;"/>
		</clipPath>
		<path class="st0" d="M84.4,26c-46.4,0-84,37.6-84,84c0,25.4,11.3,48.2,29.2,63.6c-0.1,0.1-0.1,0.2-0.2,0.2
			C44,186.4,63.1,194,83.9,194c20,0,38.3-7,52.7-18.6c-0.1-0.2-0.2-0.3-0.3-0.5c0.1,0.1,0.2,0.2,0.2,0.4c0.1,0.1,0.2,0.2,0.3,0.2
			c19.2-15.4,31.5-39,31.5-65.5C168.4,63.7,130.8,26,84.4,26z M35.7,168.1c0.4-0.2,0.7-0.4,1.1-0.6
			C36.4,167.7,36.1,167.9,35.7,168.1z M135.8,174c0,0,0.1,0.1,0.1,0.1C135.8,174.1,135.8,174,135.8,174z"/>
		<g class="st1">
			<path class="st2" d="M125,155.1l-2.9-0.2v-5.4c0-4.5-3.6-8.1-8.1-8.1h-54c-4.5,0-8.1,3.6-8.1,8.1v5.4l-2.9,0.3
				c-10.7,1.4-18.7,10.5-18.7,21.3v29.7h113.4v-29.7C143.7,165.7,135.7,156.5,125,155.1z"/>
			<path class="st3" d="M87.1,171.1c-7.3,0-14.2-3.3-18.9-8.9v44H106v-44C101.3,167.9,94.4,171.1,87.1,171.1z"/>
			<path class="st4" d="M105.3,152.8c-2.7-0.3-4.8-2.7-4.7-5.4v-19.5h-27v19.5c0,2.7-2,5.1-4.7,5.4h-0.6v9.4
				c8.6,10.4,24.1,11.9,34.5,3.2c1.2-1,2.3-2.1,3.2-3.2v-9.3L105.3,152.8z"/>
			<path class="st5" d="M79,169.7c-4.2-1.5-8-4.1-10.8-7.5v44H79V169.7z"/>
			<path class="st6" d="M30.4,176.5v29.7h10.8v-48.3C34.5,161.7,30.4,168.8,30.4,176.5z"/>
			<path class="st4" d="M114.1,106.3h5.4c4.5,0,8.1-3.6,8.1-8.1l0,0c0-4.5-3.6-8.1-8.1-8.1h-2.7"/>
			<path class="st7" d="M60.1,106.3h-5.4c-4.5,0-8.1-3.6-8.1-8.1l0,0c0-4.5,3.6-8.1,8.1-8.1h2.7"/>
			<path class="st8" d="M116.8,73.9h-54c-8.9,0-16.2-7.2-16.2-16.2h10.8c-4.5,0-8.1-3.6-8.1-8.1V47h40.5
				C104.7,47,116.8,59,116.8,73.9z"/>
			<path class="st4" d="M57.4,73.9v27l0.6,8.4c1.4,16.1,15.5,28,31.6,26.6c0.9-0.1,1.7-0.2,2.6-0.3c13.3-2.6,23.2-13.8,24-27.3
				l0.6-7.3v-27H57.4z"/>
			<path class="st7" d="M68.2,104.6V71.2H57.4v29.7l0.6,8.4c0.9,11.5,8.6,21.3,19.6,25l-5-11.1C69.7,117.5,68.2,111.1,68.2,104.6z"
				/>
			<path class="st9" d="M68.2,71.2c0.1,7.8-4,15-10.8,18.9V71.2H68.2z"/>
			<path class="st8" d="M116.8,90.1c0,0-10.8-5.4-10.8-16.2h10.8V90.1z"/>
			<path class="st7" d="M100.6,141.4v-8.1h-27v8.1C83.7,146.8,90.4,146.8,100.6,141.4z"/>
			<path class="st9" d="M46.6,57.8c0.6,8.7,7.5,15.6,16.2,16.2h51.3C91.1,70.6,68.5,65.2,46.6,57.8z"/>
			<path class="st6" d="M68.9,153.2c0.5-0.8,1.1-1.5,1.9-2c1.7-1,2.7-2.9,2.7-4.9v-4.9H62.4c-5.7,0-10.4,4.6-10.4,10.4
				c0,2.1,0.6,4.1,1.8,5.8l3.3,4.9C59.6,157.9,63.9,154.6,68.9,153.2z"/>
			<path d="M116.8,76.6h-54c-10.4,0-18.9-8.5-18.9-18.9c0-1.5,1.2-2.7,2.7-2.7H48c-0.9-1.6-1.4-3.4-1.4-5.4V47
				c0-1.5,1.2-2.7,2.7-2.7h40.5c16.4,0,29.7,13.3,29.7,29.7C119.5,75.4,118.3,76.6,116.8,76.6z M49.6,60.5
				c1.3,6.2,6.7,10.8,13.2,10.8h51.1c-1.3-12.1-11.7-21.6-24.1-21.6H52c0,3,2.4,5.4,5.4,5.4c1.5,0,2.7,1.2,2.7,2.7s-1.2,2.7-2.7,2.7
				H49.6z"/>
			<path d="M58.6,92.6l-2.4-4.8l1.2,2.4l-1.2-2.4c0.1,0,9.3-4.8,9.3-13.8h5.4C70.9,86.3,59.1,92.3,58.6,92.6z"/>
			<path d="M115.6,92.6c-0.5-0.3-12.3-6.3-12.3-18.6h5.4c0,8.9,9.2,13.7,9.3,13.8L115.6,92.6z"/>
			<circle cx="70.9" cy="95.5" r="5.4"/>
			<circle cx="103.3" cy="95.5" r="5.4"/>
			<path d="M89.8,109h-8.1c-0.9,0-1.7-0.4-2.2-1.2s-0.6-1.7-0.3-2.5l5.4-13.5l5,2l-3.9,9.8h4.1V109z"/>
			<path d="M82.1,119.8h-0.5v-5.4h0.5c4.2,0,8.2-1.6,11.1-4.6l3.8,3.8C93.1,117.6,87.8,119.8,82.1,119.8z"/>
			<path d="M119.5,109h-2.7v-5.4h2.7c3,0,5.4-2.4,5.4-5.4s-2.4-5.4-5.4-5.4h-2.7v-5.4h2.7c6,0,10.8,4.8,10.8,10.8
				S125.4,109,119.5,109z"/>
			<path d="M57.4,109h-2.7c-6,0-10.8-4.8-10.8-10.8s4.8-10.8,10.8-10.8h2.7v5.4h-2.7c-3,0-5.4,2.4-5.4,5.4s2.4,5.4,5.4,5.4h2.7V109z
				"/>
			<path d="M87.1,138.7c-15.2,0-28.6-10.9-31.4-26.3c-0.2-0.9-0.3-1.9-0.4-2.9l-0.7-8.4l0-27.2h5.4v27l0.6,8.2
				c0.1,0.8,0.2,1.6,0.3,2.3c2.6,14.4,16.3,24,30.7,21.4c12.1-2.3,21-12.6,21.8-24.8l0.6-7.4l0-26.8h5.4v27l-0.6,7.5
				c-0.9,14.7-11.7,27-26.2,29.8C90.8,138.6,89,138.7,87.1,138.7z"/>
			<path d="M70.9,206.2h-5.4v-53.4c0-1.5,1.2-2.7,2.7-2.7h0.5c1.3-0.2,2.2-1.4,2.2-2.7v-14.1h5.4v14.1c0,3.5-2.2,6.6-5.4,7.7V206.2z
				"/>
			<path d="M33.1,206.2h-5.4v-29.7c0-12.1,9.1-22.5,21.1-24.1l3-0.2l0.4,5.4l-2.9,0.2c-9.2,1.2-16.2,9.3-16.2,18.7V206.2z"/>
			<path d="M87.1,173.8c-8.1,0-15.8-3.6-21-9.9l4.2-3.4c4.2,5,10.3,7.9,16.8,7.9c6.5,0,12.7-2.9,16.8-7.9l4.2,3.4
				C102.9,170.2,95.2,173.8,87.1,173.8z"/>
			<path d="M65.9,180.7l-14.5-21.6c-1.5-2.2-2.2-4.7-2.2-7.4c0-7.2,5.9-13,13.1-13h11.2v5.4H62.4c-4.2,0-7.7,3.4-7.7,7.7
				c0,1.6,0.4,3.1,1.3,4.3l14.5,21.6L65.9,180.7z"/>
			<path d="M60.1,200.8c-1.5,0-2.7-1.2-2.7-2.7v-16.2c0-1.5,1.2-2.7,2.7-2.7c1.5,0,2.7,1.2,2.7,2.7v16.2
				C62.8,199.6,61.6,200.8,60.1,200.8z"/>
			<path d="M108.7,206.2h-5.4v-51.1c-3.2-1.1-5.4-4.2-5.4-7.7v-14.1h5.4v14.1c0,1.3,0.9,2.5,2.2,2.7h0.5c1.5,0,2.7,1.2,2.7,2.7
				V206.2z"/>
			<path d="M146.4,206.2h-5.4v-29.7c0-9.4-7-17.5-16.4-18.7l-2.7-0.2l0.4-5.4l2.9,0.2c12.2,1.6,21.2,12,21.2,24.1V206.2z"/>
			<path d="M108.2,180.7l-4.5-3l14.5-21.6c0.8-1.3,1.3-2.8,1.3-4.3c0-4.3-3.4-7.7-7.7-7.7h-11.2v-5.4h11.2c7.2,0,13.1,5.9,13.1,13.1
				c0,2.6-0.7,5.1-2.2,7.3L108.2,180.7z"/>
			<path d="M114.1,200.8c-1.5,0-2.7-1.2-2.7-2.7v-16.2c0-1.5,1.2-2.7,2.7-2.7c1.5,0,2.7,1.2,2.7,2.7v16.2
				C116.8,199.6,115.6,200.8,114.1,200.8z"/>
		</g>
	</g>
	<g>
		<path class="st10" d="M157.3,179c0,11.6-9.4,21-21,21s-21-9.4-21-21s9.4-21,21-21S157.3,167.4,157.3,179L157.3,179z M157.3,179"/>
		<path class="st11" d="M136.3,168.9v21 M146.8,179h-21"/>
	</g>
</g>
</svg>
