<?xml version="1.0" encoding="utf-8"?>
<!-- Generator: Adobe Illustrator 22.0.1, SVG Export Plug-In . SVG Version: 6.00 Build 0)  -->
<svg version="1.1" id="Слой_1" xmlns="http://www.w3.org/2000/svg" xmlns:xlink="http://www.w3.org/1999/xlink" x="0px" y="0px"
	 viewBox="0 0 200 200" style="enable-background:new 0 0 200 200;" xml:space="preserve">
<style type="text/css">
	.st0{clip-path:url(#SVGID_2_);fill:#00B99A;}
	.st1{clip-path:url(#SVGID_2_);}
	.st2{fill:#F5AD76;}
	.st3{fill:#FEDAC6;}
	.st4{fill:#F5C4B0;}
	.st5{fill:#3CACDE;}
	.st6{fill:#329AC7;}
	.st7{fill:#FECB66;}
	.st8{fill:#70C385;}
	.st9{fill:none;stroke:#FFFFFF;stroke-width:4;stroke-linecap:round;stroke-linejoin:round;stroke-miterlimit:10;}
</style>
<g>
	<g>
		<defs>
			<path id="SVGID_1_" d="M90.5,12.2C40.5,12.2,0,52.7,0,102.7c0,27.4,12.2,51.9,31.4,68.5c-0.1,0.1-0.1,0.2-0.2,0.3
				C47,185,67.6,193.2,90,193.2c21.5,0,41.3-7.5,56.8-20.1c-0.1-0.2-0.2-0.3-0.3-0.5c0.1,0.1,0.2,0.3,0.2,0.4
				c0.1,0.1,0.2,0.2,0.3,0.2c20.7-16.6,33.9-42,33.9-70.6C181,52.7,140.5,12.2,90.5,12.2z M38.1,165.3c0.4-0.2,0.8-0.4,1.2-0.6
				C38.8,164.8,38.5,165,38.1,165.3z M145.9,171.6c0,0.1,0.1,0.1,0.1,0.2C146,171.7,145.9,171.6,145.9,171.6z"/>
		</defs>
		<clipPath id="SVGID_2_">
			<use xlink:href="#SVGID_1_"  style="overflow:visible;"/>
		</clipPath>
		<path class="st0" d="M90.9,12.2c-50,0-90.5,40.5-90.5,90.5c0,27.4,12.2,51.9,31.4,68.5c-0.1,0.1-0.1,0.2-0.2,0.3
			C47.4,185,68,193.2,90.4,193.2c21.5,0,41.3-7.5,56.8-20.1c-0.1-0.2-0.2-0.3-0.3-0.5c0.1,0.1,0.2,0.3,0.2,0.4
			c0.1,0.1,0.2,0.2,0.3,0.2c20.7-16.6,33.9-42,33.9-70.6C181.4,52.7,140.9,12.2,90.9,12.2z M38.5,165.3c0.4-0.2,0.8-0.4,1.2-0.6
			C39.2,164.8,38.8,165,38.5,165.3z M146.3,171.6c0,0.1,0.1,0.1,0.1,0.2C146.4,171.7,146.3,171.6,146.3,171.6z"/>
		<g class="st1">
			<path class="st2" d="M118.6,174.9H62.4c-9.4-3.8-15.6-12.9-15.6-23V75.1c0-24.1,19.5-43.6,43.6-43.6l0,0
				c24.1,0,43.6,19.5,43.6,43.6v76.7C134.1,162,128,171.1,118.6,174.9z"/>
			<rect x="37.5" y="190.5" class="st3" width="12.5" height="24.9"/>
			<rect x="25" y="190.5" class="st4" width="12.5" height="24.9"/>
			<rect x="131" y="190.5" class="st3" width="24.9" height="24.9"/>
			<path class="st5" d="M156,175.8c0.1-9.5-7-17.5-16.4-18.7l-21.6-2.7l-6.2-0.8c-3.1-0.4-5.5-3.1-5.5-6.2v-16.1H74.9v16.3
				c0,3.2-2.3,5.8-5.5,6.2l-6.4,0.8l-21.6,2.7C32,158.4,25,166.5,25,176v14.5H50l-0.7,1.3c-3.7,7.3-5.6,15.4-5.6,23.6h93.5
				c0-8.2-1.9-16.3-5.6-23.6l-0.7-1.3H156V175.8z"/>
			<path class="st3" d="M106.1,148.5v-17.3H74.9v17.3C86.6,154.6,94.4,154.6,106.1,148.5z"/>
			<path class="st6" d="M46.9,197.4c-2.1,5.8-3.2,11.9-3.1,18.1h20.8C56.3,212.3,49.8,205.7,46.9,197.4z"/>
			<path class="st4" d="M106.1,140.6v-9.4H74.9v15.6C82.7,147.3,90.5,146.8,106.1,140.6z"/>
			<path class="st6" d="M37.5,158.2C30,160.8,25,167.9,25,175.8v14.7h12.5V158.2z"/>
			<path class="st7" d="M118.6,174.9L118.6,174.9V75.1c-6-1.6-11.4-4.8-15.6-9.4c-4.6-4.8-8.7-10.1-12.5-15.6
				c-3.7,5.5-7.9,10.7-12.5,15.6c-4.8,4.6-10.1,8.7-15.6,12.5v96.6l0,0c-9.4-3.8-15.6-12.9-15.6-23V75.1c0-24.1,19.5-43.6,43.6-43.6
				l0,0c24.1,0,43.6,19.5,43.6,43.6v76.7C134.1,162,128,171.1,118.6,174.9z"/>
			<path class="st2" d="M78.2,33.3c-18.6,5.4-31.4,22.5-31.4,41.9v76.7c0,10.1,6.2,19.2,15.6,23V78.2c4.6-3.1,9-6.5,13.2-10.2
				C74.8,56.4,75.6,44.6,78.2,33.3z"/>
			<path class="st3" d="M118.6,121.4c-3.4,5.1-8,9.2-13.5,11.9l-6.2,3.1l5.9-3l-5.9,3c-5.3,2.6-11.5,2.6-16.7,0l-6.2-3.1
				c-5-3.2-9.5-7-13.4-11.4V78.2C68,74.5,73.2,70.3,78,65.8c4.6-4.8,8.7-10.1,12.5-15.6c3.7,5.5,7.9,10.7,12.5,15.6
				c4.2,4.5,9.6,7.8,15.6,9.4V121.4z"/>
			<g>
				<path class="st4" d="M74.9,68.7c-4,3.4-8.1,6.6-12.5,9.6v43.6c3.9,4.4,8.5,8.3,13.5,11.4l4.6,2.3c-3.5-10.5-5.4-21.4-5.6-32.5
					V68.7z"/>
				<polygon class="st4" points="118.6,121.4 118.6,121.4 118.6,121.9 				"/>
			</g>
			<circle cx="109.2" cy="87.6" r="6.2"/>
			<path d="M85.2,108.5l-6.2-6.2c-1.2-1.2-1.2-3.2,0-4.4l6.2-6.2l4.4,4.4l-4,4l4,4L85.2,108.5z"/>
			<path d="M62.8,157.7l-0.8-6.2l7-0.9c1.6-0.2,2.7-1.5,2.7-3.1v-13.2H78v13.2c0,4.7-3.5,8.7-8.2,9.3L62.8,157.7z"/>
			<path d="M28.1,215.4h-6.2v-39.6c-0.1-11.1,8.1-20.4,19.1-21.8l5.3-0.9l1.1,6.1l-5.4,0.9c-8,1-13.9,7.7-13.8,15.6V215.4z"/>
			<path d="M159.1,215.4h-6.2v-39.5c0.1-7.9-5.8-14.6-13.7-15.6l-5.6-1.1l1.2-6.1l5.4,1.1c10.8,1.3,19,10.7,18.9,21.8L159.1,215.4
				L159.1,215.4z"/>
			<path d="M118.2,157.7l-7-0.8c-4.7-0.6-8.2-4.6-8.2-9.4v-13.2h6.2v13.2c0,1.6,1.2,2.9,2.7,3.1l7,0.8L118.2,157.7z"/>
			<path d="M86.6,118.8C86.6,118.8,86.6,118.8,86.6,118.8h-2.4v-6.2h2.4c0,0,0,0,0,0c4.1,0,8.2-1,11.8-2.8l2.8,5.6
				C96.7,117.6,91.7,118.8,86.6,118.8z"/>
			<circle cx="71.8" cy="87.6" r="6.2"/>
			<polygon points="115.6,128.1 115.4,128.1 115.4,121.9 			"/>
			<path d="M62.4,178c-0.4,0-0.8-0.1-1.2-0.2c-10.6-4.3-17.5-14.5-17.5-25.9V75.1c0-25.8,21-46.8,46.8-46.8s46.8,21,46.8,46.8v76.7
				c0,11.5-6.9,21.6-17.5,25.9c-1,0.4-2.1,0.3-2.9-0.3c-0.9-0.6-1.4-1.5-1.4-2.6V77.4c-5.6-1.9-10.7-5.2-14.7-9.5
				c-3.6-3.9-7.1-8-10.2-12.3c-3.1,4.3-6.6,8.4-10.2,12.3c-4.7,4.4-9.6,8.4-14.7,12v95c0,1-0.5,2-1.4,2.6
				C63.7,177.8,63.1,178,62.4,178z M90.5,47.1c1,0,2,0.5,2.6,1.4c3.6,5.4,7.7,10.5,12.2,15.2c3.8,4.1,8.7,7,14.1,8.5
				c1.4,0.4,2.3,1.6,2.3,3v94.6c5.8-4,9.3-10.6,9.4-17.8V75.1c0-22.3-18.2-40.5-40.5-40.5S50,52.8,50,75.1v76.7
				c0,7.2,3.6,13.8,9.4,17.8V78.2c0-1,0.5-2,1.4-2.6c5.4-3.6,10.5-7.7,15.2-12.1c4.3-4.6,8.4-9.7,12-15.1
				C88.5,47.6,89.5,47.1,90.5,47.1z"/>
			<path d="M90.5,141.5c-3.3,0-6.7-0.8-9.7-2.3l-6.2-3.1c-0.1,0-0.2-0.1-0.3-0.2c-5.2-3.3-10-7.3-14.1-12l4.7-4.1
				c3.7,4.2,8,7.8,12.6,10.8l6.1,3c4.4,2.2,9.6,2.2,13.9,0l5.9-3c0.1,0,0.2-0.1,0.3-0.1l0.1,0c5-2.5,9.2-6.2,12.3-10.8l5.2,3.5
				c-3.7,5.5-8.8,10-14.7,13l-6.2,3.1c0,0,0,0,0,0C97.2,140.7,93.8,141.5,90.5,141.5z"/>
			<path d="M40.6,215.4c0-8.6,2-17.3,5.9-25l0.3-0.7v-8.6h6.2v9.4c0,0.5-0.1,1-0.3,1.4l-0.7,1.3c-3.4,6.9-5.3,14.6-5.3,22.2H40.6z"
				/>
			<path d="M140.4,215.4h-6.2c0-7.7-1.8-15.4-5.3-22.2l-0.7-1.3c-0.2-0.4-0.3-0.9-0.3-1.4v-9.4h6.2v8.6l0.3,0.7
				C138.3,198.1,140.4,206.8,140.4,215.4z"/>
			<path d="M90.5,155.8c-6.2,0-12.3-1.9-17.5-5.8l3.8-5c8.1,6.1,19.4,6.1,27.4,0l3.8,5C102.8,153.9,96.7,155.8,90.5,155.8z"/>
			<rect x="25" y="187.4" width="24.9" height="6.2"/>
			<rect x="131" y="187.4" width="24.9" height="6.2"/>
		</g>
	</g>
	<g>
		<path class="st8" d="M168.5,177c0,12.5-10.1,22.6-22.6,22.6c-12.5,0-22.6-10.1-22.6-22.6s10.1-22.6,22.6-22.6
			C158.4,154.3,168.5,164.4,168.5,177L168.5,177z M168.5,177"/>
		<path class="st9" d="M145.9,166.1v22.6 M157.2,177h-22.6"/>
	</g>
</g>
</svg>
