<?xml version="1.0" encoding="utf-8"?>
<!-- Generator: Adobe Illustrator 22.0.1, SVG Export Plug-In . SVG Version: 6.00 Build 0)  -->
<svg version="1.1" id="Слой_1" xmlns="http://www.w3.org/2000/svg" xmlns:xlink="http://www.w3.org/1999/xlink" x="0px" y="0px"
	 viewBox="0 0 200 200" style="enable-background:new 0 0 200 200;" xml:space="preserve">
<style type="text/css">
	.st0{clip-path:url(#SVGID_2_);fill:#125A88;}
	.st1{clip-path:url(#SVGID_2_);}
	.st2{fill:#FEDAC6;}
	.st3{fill:#2E6AA3;}
	.st4{fill:#F5C4B0;}
	.st5{fill:#245E8F;}
	.st6{fill:#A15D30;}
	.st7{fill:#8F4F24;}
	.st8{fill:#70C385;}
	.st9{fill:none;stroke:#FFFFFF;stroke-width:4;stroke-linecap:round;stroke-linejoin:round;stroke-miterlimit:10;}
</style>
<g>
	<g>
		<defs>
			<path id="SVGID_1_" d="M93.6,6.2C41.9,6.2,0,48.1,0,99.8c0,28.3,12.6,53.7,32.5,70.9c-0.1,0.1-0.1,0.2-0.2,0.3
				c16.4,14,37.6,22.5,60.8,22.5c22.3,0,42.7-7.8,58.8-20.8c-0.1-0.2-0.2-0.3-0.3-0.5c0.1,0.1,0.2,0.3,0.3,0.4
				c0.1,0.1,0.2,0.2,0.3,0.3c21.4-17.1,35.1-43.5,35.1-73C187.2,48.1,145.3,6.2,93.6,6.2z M39.4,164.5c0.4-0.2,0.8-0.4,1.2-0.7
				C40.2,164,39.8,164.3,39.4,164.5z M150.9,171c0,0.1,0.1,0.1,0.1,0.2C151,171.1,150.9,171.1,150.9,171z"/>
		</defs>
		<clipPath id="SVGID_2_">
			<use xlink:href="#SVGID_1_"  style="overflow:visible;"/>
		</clipPath>
		<path class="st0" d="M94,6.2C42.3,6.2,0.4,48.1,0.4,99.8c0,28.3,12.6,53.7,32.5,70.9c-0.1,0.1-0.1,0.2-0.2,0.3
			c16.4,14,37.6,22.5,60.8,22.5c22.3,0,42.7-7.8,58.8-20.8c-0.1-0.2-0.2-0.3-0.3-0.5c0.1,0.1,0.2,0.3,0.3,0.4
			c0.1,0.1,0.2,0.2,0.3,0.3c21.4-17.1,35.1-43.5,35.1-73C187.6,48.1,145.7,6.2,94,6.2z M39.8,164.5c0.4-0.2,0.8-0.4,1.2-0.7
			C40.6,164,40.2,164.3,39.8,164.5z M151.3,171c0,0.1,0.1,0.1,0.1,0.2C151.4,171.1,151.3,171.1,151.3,171z"/>
		<g class="st1">
			<path class="st2" d="M95,170c11.3,0,21.5-6.7,26-17.1l1.5-3.5l-3.4-0.5c-3.1-0.4-5.4-3.1-5.4-6.2v-16.3H76.3v16.3
				c0,3.1-2.3,5.8-5.4,6.2l-3.4,0.5l1.5,3.5C73.4,163.3,83.7,170,95,170z"/>
			<path class="st3" d="M138.7,151.5l-16.2-2.1l-1.5,3.5c-6.2,14.4-22.8,21-37.2,14.8c-6.7-2.9-12-8.2-14.8-14.8l-1.5-3.5l-16.2,2.1
				c-12.4,1.7-21.6,12.2-21.6,24.7v34.2h130.6v-34.2C160.3,163.7,151.1,153.2,138.7,151.5z"/>
			<path class="st4" d="M113.6,143.7v-15.6H76.3v15.6C90.3,149.7,99.6,149.7,113.6,143.7z"/>
			<path class="st5" d="M29.6,176.2v34.2h12.4v-55.7C34.4,159.1,29.7,167.3,29.6,176.2z"/>
			<rect x="42.1" y="194.9" class="st2" width="12.4" height="15.6"/>
			<rect x="29.7" y="194.9" class="st4" width="12.4" height="15.6"/>
			<g>
				<rect x="135.4" y="194.9" class="st2" width="24.9" height="15.6"/>
				<path class="st2" d="M129.2,107.1c0,4.6-1.6,9-4.6,12.4l-13.4,15.2c-2.4,2.7-5.8,4.2-9.3,4.2H88.2c-3.6,0-7-1.5-9.3-4.2
					l-13.4-15.4c-3-3.4-4.6-7.9-4.6-12.4V79.8l55.9-31.1l12.4,24.9V107.1z"/>
				<path class="st2" d="M129.2,76.7h-3.1v18.7h3.1c5.2,0,9.3-4.2,9.3-9.3C138.5,80.8,134.3,76.7,129.2,76.7z"/>
			</g>
			<g>
				<path class="st4" d="M51.4,89.1c0,5.2,4.2,9.3,9.3,9.3h3.1V79.8h-3.1C55.6,79.8,51.4,84,51.4,89.1z"/>
				<path class="st4" d="M74.4,101.6l-1.2-40.4H62l-1.2,44.3c0,7.2,3.1,14,8.5,18.7c0,0,12.7,13.9,14.5,14.8l-6.8-19.5
					C74.9,113.7,74,107.6,74.4,101.6z"/>
			</g>
			<path class="st6" d="M135.4,79.8l1.4-18.5c1-10.6-6.4-20.2-17-22l0,0c-9.3-11.2-24.7-15.4-38.4-10.6l-4.6,1.6
				c-15,5.3-24.5,20-23.2,35.8l0.9,16.7h6.2l56-34.2l12.4,31.1H135.4z"/>
			<path class="st7" d="M82.9,28.5l-1.5,0.4l-4.6,1.6c-15,5.3-24.5,20-23.2,35.8l0.9,16.5h6.2L75.3,74
				C74.5,50.9,78.6,36.8,82.9,28.5z"/>
			<path d="M129.2,98.4h-3.1v-6.2h3.1c3.4,0,6.2-2.8,6.2-6.2c0-3.4-2.8-6.2-6.2-6.2h-3.1v-6.2h3.1c6.9,0,12.4,5.6,12.4,12.4
				C141.6,92.9,136.1,98.4,129.2,98.4z"/>
			<path d="M63.9,101.6h-3.1c-6.9,0-12.4-5.6-12.4-12.4c0-6.9,5.6-12.4,12.4-12.4h3.1v6.2h-3.1c-3.4,0-6.2,2.8-6.2,6.2
				s2.8,6.2,6.2,6.2h3.1V101.6z"/>
			<path d="M98.1,101.7h-9.3c-0.9,0-1.7-0.4-2.3-1.1c-0.6-0.7-0.9-1.6-0.8-2.4l3.1-24.9l6.2,0.8l-2.7,21.4h5.8L98.1,101.7
				L98.1,101.7z"/>
			<rect x="85.7" y="107.9" width="18.7" height="6.2"/>
			<path d="M101.8,142.1H88.2c-4.5,0-8.7-1.9-11.7-5.3l-13.4-15.4c-3.5-4-5.4-9.2-5.4-14.5V79.8c0-1.1,0.6-2.2,1.6-2.7L115.2,46
				c0.7-0.4,1.6-0.5,2.4-0.3c0.8,0.3,1.5,0.8,1.9,1.6L132,72.2c0.2,0.4,0.3,0.9,0.3,1.4v33.6c0,5.3-1.9,10.5-5.4,14.5l-13.4,15.2
				C110.5,140.2,106.3,142.1,101.8,142.1z M63.9,81.6V107c0,3.8,1.3,7.5,3.8,10.4l13.4,15.4c1.8,2,4.3,3.2,7,3.2h13.6
				c2.7,0,5.2-1.2,7-3.2l13.4-15.2c2.5-2.9,3.9-6.5,3.8-10.4c0,0,0,0,0,0V74.3L115.4,53L63.9,81.6z"/>
			<circle cx="76.3" cy="79.9" r="6.2"/>
			<circle cx="110.5" cy="79.9" r="6.2"/>
			<path d="M51.4,83.1l-0.9-16.7c-1.4-17.1,9-33.2,25.2-38.9l4.6-1.6c14.6-5.1,30.9-0.8,41.1,10.7C133,39,141,49.8,139.9,61.6
				L138.5,80l-6.2-0.5l1.4-18.5c0.8-9-5.5-17.2-14.4-18.7c-0.7-0.1-1.4-0.5-1.9-1.1c-8.5-10.2-22.5-14-35-9.6l-4.6,1.6
				C64.2,38.1,55.6,51.6,56.8,66l0.9,16.8L51.4,83.1z"/>
			<rect x="85.7" y="126.6" width="6.2" height="12.4"/>
			<rect x="98.1" y="126.6" width="6.2" height="9.3"/>
			<rect x="74.4" y="123.5" transform="matrix(0.4472 -0.8944 0.8944 0.4472 -70.169 139.5944)" width="7" height="6.2"/>
			<rect x="109" y="123.2" transform="matrix(0.9487 -0.3162 0.3162 0.9487 -34.7629 42.0129)" width="6.2" height="9.8"/>
			<path d="M32.8,210.4h-6.2v-34.2c0-14,10.4-25.9,24.3-27.8l19.7-2.6c1.6-0.2,2.7-1.5,2.7-3.1v-10.1h6.2v10c0,4.7-3.4,8.7-8.1,9.3
				l-19.7,2.6c-10.8,1.4-18.9,10.7-18.9,21.6L32.8,210.4z"/>
			<path d="M163.4,210.4h-6.2v-34.2c0-10.8-8.1-20.1-18.9-21.5l-19.7-2.6c-4.7-0.6-8.2-4.6-8.1-9.3v-10.1h6.2v10.1
				c0,1.6,1.2,2.9,2.7,3.1l19.7,2.6c13.8,1.8,24.3,13.7,24.3,27.7L163.4,210.4L163.4,210.4z"/>
			<path d="M95,173.1C95,173.1,95,173.1,95,173.1c-12.6,0-23.9-7.5-28.9-19l-2-4.6l5.7-2.5l2,4.6c4,9.3,13.1,15.3,23.1,15.3
				c0,0,0,0,0,0c10.1,0,19.2-6,23.1-15.3l2-4.6l5.7,2.5l-2,4.6C118.9,165.6,107.6,173.1,95,173.1z"/>
			<rect x="51.4" y="185.5" width="6.2" height="24.9"/>
			<rect x="29.7" y="191.8" width="24.9" height="6.2"/>
			<rect x="132.3" y="185.5" width="6.2" height="24.9"/>
			<rect x="135.4" y="191.8" width="24.9" height="6.2"/>
		</g>
	</g>
	<g>
		<path class="st8" d="M176.2,176.6c0,12.9-10.5,23.4-23.4,23.4c-12.9,0-23.4-10.5-23.4-23.4s10.5-23.4,23.4-23.4
			C165.8,153.2,176.2,163.6,176.2,176.6L176.2,176.6z M176.2,176.6"/>
		<path class="st9" d="M152.8,165.3v23.4 M164.5,176.6h-23.4"/>
	</g>
</g>
</svg>
