<?xml version="1.0" encoding="utf-8"?>
<!-- Generator: Adobe Illustrator 22.0.1, SVG Export Plug-In . SVG Version: 6.00 Build 0)  -->
<svg version="1.1" id="Слой_1" xmlns="http://www.w3.org/2000/svg" xmlns:xlink="http://www.w3.org/1999/xlink" x="0px" y="0px"
	 viewBox="0 0 200 200" style="enable-background:new 0 0 200 200;" xml:space="preserve">
<style type="text/css">
	.st0{clip-path:url(#SVGID_2_);fill:#125A88;}
	.st1{clip-path:url(#SVGID_2_);}
	.st2{fill:#FECB66;}
	.st3{fill:#F5AD76;}
	.st4{fill:#FEDAC6;}
	.st5{fill:#F5C4B0;}
	.st6{fill:#74A32E;}
	.st7{fill:#688E26;}
	.st8{fill:#70C385;}
	.st9{fill:none;stroke:#FFFFFF;stroke-width:4;stroke-linecap:round;stroke-linejoin:round;stroke-miterlimit:10;}
</style>
<g>
	<g>
		<defs>
			<path id="SVGID_1_" d="M94.4,3.3c-51.9,0-94,42.1-94,94c0,28.5,12.7,53.9,32.6,71.2c-0.1,0.1-0.1,0.2-0.2,0.3
				c16.4,14.1,37.8,22.6,61.1,22.6c22.4,0,42.9-7.8,59-20.9c-0.1-0.2-0.2-0.3-0.3-0.5c0.1,0.1,0.2,0.3,0.3,0.4
				c0.1,0.1,0.2,0.2,0.3,0.3c21.5-17.2,35.2-43.7,35.2-73.3C188.4,45.4,146.3,3.3,94.4,3.3z M39.9,162.3c0.4-0.2,0.8-0.5,1.2-0.7
				C40.7,161.9,40.3,162.1,39.9,162.3z M151.9,168.9c0,0.1,0.1,0.1,0.1,0.2C152,169,152,168.9,151.9,168.9z"/>
		</defs>
		<clipPath id="SVGID_2_">
			<use xlink:href="#SVGID_1_"  style="overflow:visible;"/>
		</clipPath>
		<path class="st0" d="M94.8,3.3c-51.9,0-94,42.1-94,94c0,28.5,12.7,53.9,32.6,71.2c-0.1,0.1-0.1,0.2-0.2,0.3
			c16.4,14.1,37.8,22.6,61.1,22.6c22.4,0,42.9-7.8,59-20.9c-0.1-0.2-0.2-0.3-0.3-0.5c0.1,0.1,0.2,0.3,0.3,0.4
			c0.1,0.1,0.2,0.2,0.3,0.3c21.5-17.2,35.2-43.7,35.2-73.3C188.8,45.4,146.7,3.3,94.8,3.3z M40.3,162.3c0.4-0.2,0.8-0.5,1.2-0.7
			C41.1,161.9,40.7,162.1,40.3,162.3z M152.3,168.9c0,0.1,0.1,0.1,0.1,0.2C152.4,169,152.4,168.9,152.3,168.9z"/>
		<g class="st1">
			<path class="st2" d="M94.9,24c-16.9,0-28.5,3.2-38,22.2c-6.3,12.7-3.2,53.9-3.2,53.9v63.4H136V71.5C135.2,43.5,126.4,24,94.9,24z
				"/>
			<path class="st3" d="M90.5,24C76.4,24.7,66,29,57.5,46.1c-6.3,12.7-3.2,53.9-3.2,53.9v63.4h36.8C80.4,105.1,87.3,46.4,90.5,24z"
				/>
			<path class="st4" d="M94.8,169.7c11.5,0,21.9-6.9,26.5-17.5l1.4-3.2l-6.3-0.8c-3.2-0.4-5.6-3.1-5.5-6.3v-16.6H78.9v16.6
				c0,3.2-2.4,5.9-5.5,6.3l-6.5,0.8l1.4,3.2C72.8,162.8,83.2,169.7,94.8,169.7z"/>
			<path class="st5" d="M110.6,139.7v-14.4H78.9v14.4C90.8,145.9,98.7,145.9,110.6,139.7z"/>
			<path class="st4" d="M53.6,185.5v-34.8l-8.7,1.1c-9.6,1.2-16.7,9.4-16.7,19v40.1h19c0-8.3,1.9-16.6,5.7-24L53.6,185.5z"/>
			<path class="st6" d="M136,185.5v-34.8l-13.3-1.7l-1.4,3.2c-6.3,14.6-23.2,21.4-37.9,15.1c-6.8-2.9-12.2-8.3-15.1-15.1l-1.4-3.2
				l-13.3,1.7v34.8l-0.7,1.3c-3.7,7.5-5.7,15.7-5.7,24h95c0-8.3-1.9-16.6-5.7-24L136,185.5z"/>
			<path class="st4" d="M144.6,151.8l-8.7-1.1v34.8l0.7,1.3c3.7,7.5,5.7,15.7,5.7,24h19v-40.2C161.3,161,154.2,152.9,144.6,151.8z"
				/>
			<path class="st5" d="M28.2,170.6v40.2h9.5v-56.6C31.9,157.6,28.3,163.9,28.2,170.6z"/>
			<path class="st2" d="M129.6,74.6c-8-8.3-14.4-17.9-19-28.5C96.9,69,77.2,87.6,53.6,100c0,0-3.2-41.2,3.2-53.9
				c9.5-19,21.3-22.2,38-22.2l0,0c31.7,0,40.2,19.5,41.2,47.5v6.3"/>
			<path class="st3" d="M53.6,100c27.9-14,47.5-34.8,57-53.9C86.1,68.3,72.6,81,52.9,82.9C53,92.5,53.6,100,53.6,100z"/>
			<path class="st4" d="M129.6,74.6c-8-8.3-14.4-17.9-19-28.5c-12,20.1-28.7,37-48.7,49.3c-0.6,0.3-0.3,0.6-0.3,0.6v4
				c0.8,17.7,15.4,31.7,33.2,31.6l0,0c17.7,0,32.3-14,33.1-31.7L129.6,74.6z"/>
			<path class="st5" d="M59.9,93.7l0.2,6.3c0.6,12.7,11.3,23.3,22.2,28.5c-6.3-12.7-12.7-25.3-9.5-41.2
				C69.4,90.5,59.9,93.7,59.9,93.7z"/>
			<path class="st4" d="M132.8,74.6h-6.3v19h6.3c5.2,0,9.5-4.3,9.5-9.5S138,74.6,132.8,74.6z"/>
			<path class="st7" d="M50.8,191.9c-2.3,6.1-3.5,12.5-3.5,19h21.1C55.9,205.7,52,197.4,50.8,191.9z"/>
			<circle cx="113.8" cy="81" r="6.3"/>
			<path d="M93.8,103l-9.5-3.2c-1-0.3-1.7-1.1-2-2.1c-0.3-1-0.1-2,0.5-2.8l9.5-12.7l5.1,3.8l-6.9,9.2l5.3,1.8L93.8,103z"/>
			<path d="M31.4,210.9h-6.3v-40.2c-0.1-11.2,8.3-20.8,19.4-22.2l28.5-3.5c1.6-0.2,2.8-1.6,2.8-3.2v-13.3h6.3v13.2
				c0,4.8-3.5,8.9-8.3,9.5l-28.5,3.5c-8,1-13.9,7.8-13.9,15.8L31.4,210.9L31.4,210.9z"/>
			<path d="M164.5,210.9h-6.3v-40.1c0.1-8.1-5.9-14.9-13.9-15.9l-28.5-3.5c-4.8-0.6-8.4-4.7-8.3-9.5v-13.4h6.3v13.4
				c0,1.6,1.2,3,2.8,3.2l28.5,3.5c11.2,1.4,19.5,10.9,19.4,22.2V210.9L164.5,210.9z"/>
			<path d="M132.8,96.8h-3.2v-6.3h3.2c3.5,0,6.3-2.8,6.3-6.3c0-3.5-2.8-6.3-6.3-6.3h-3.2v-6.3h3.2c7,0,12.7,5.7,12.7,12.7
				C145.5,91.1,139.8,96.8,132.8,96.8z"/>
			<path d="M94.8,172.9C94.8,172.9,94.8,172.9,94.8,172.9c-12.8,0-24.4-7.6-29.4-19.4l-2-4.7l5.8-2.5l2,4.7
				c4,9.4,13.3,15.5,23.6,15.5c0,0,0,0,0,0c10.3,0,19.5-6.1,23.6-15.5l2-4.7l5.8,2.5l-2,4.7C119.1,165.2,107.6,172.9,94.8,172.9z"/>
			<path d="M94.8,134.8c-19.5,0-35.4-15.2-36.3-34.7l-0.2-6.4l6.3-0.2l0.2,6.3c0.7,16,13.9,28.6,29.9,28.6s29.2-12.6,29.9-28.7
				l1.7-28.6l6.3,0.4l-1.7,28.5C130.2,119.6,114.3,134.8,94.8,134.8z"/>
			<path d="M90.8,112.7C90.8,112.7,90.8,112.7,90.8,112.7h-2.4v-6.3h2.4c0,0,0,0,0,0c4.1,0,8.3-1,12-2.8l2.8,5.7
				C101.1,111.5,96,112.7,90.8,112.7z"/>
			<path d="M53.6,103.2c-0.5,0-1.1-0.1-1.5-0.4c-0.9-0.5-1.5-1.5-1.6-2.5c-0.1-1.7-3.2-42.2,3.5-55.5c10-20,22.6-23.9,40.8-23.9
				c37.8,0,43.6,27,44.3,50.6l0,6.4h-6.3v-6.3c-1.1-31.5-12.1-44.4-38-44.4c-16.6,0-26.5,3.2-35.2,20.4c-4.3,8.6-3.9,33.7-3.2,47.3
				c21.2-12,38.9-29.4,51.5-50.3c0.6-1,1.7-1.6,2.9-1.5c1.2,0.1,2.2,0.8,2.7,1.9c4.4,10.3,10.6,19.5,18.4,27.6l-4.6,4.4
				c-6.9-7.2-12.7-15.3-17.1-24.1c-13.8,21.1-32.8,38.3-55.2,50.1C54.6,103,54.1,103.2,53.6,103.2z"/>
			<rect x="132.8" y="93.7" width="6.3" height="57"/>
			<rect x="50.4" y="96.8" width="6.3" height="53.9"/>
			<path d="M44.1,210.9c0-8.8,2.1-17.6,6-25.4l0.3-0.7v-34.1h6.3v34.8c0,0.5-0.1,1-0.3,1.4l-0.7,1.3c-3.5,7-5.3,14.8-5.3,22.6H44.1
				L44.1,210.9z"/>
			<path d="M145.5,210.9h-6.3c0-7.8-1.8-15.6-5.3-22.6l-0.7-1.3c-0.2-0.4-0.3-0.9-0.3-1.4v-34.8h6.3v34.1l0.3,0.7
				C143.4,193.3,145.5,202.1,145.5,210.9z"/>
		</g>
	</g>
	<g>
		<path class="st8" d="M178.3,174.5c0,13-10.5,23.5-23.5,23.5s-23.5-10.5-23.5-23.5c0-13,10.5-23.5,23.5-23.5
			S178.3,161.5,178.3,174.5L178.3,174.5z M178.3,174.5"/>
		<path class="st9" d="M154.8,163.2v23.5 M166.6,174.5h-23.5"/>
	</g>
</g>
</svg>
