<svg xmlns="http://www.w3.org/2000/svg" xmlns:xlink="http://www.w3.org/1999/xlink" width="0" height="0" style="position:absolute">
	
		<symbol id="close" viewBox="0 0 357 357">
			<path d="M357 35.7L321.3 0 178.5 142.8 35.7 0 0 35.7l142.8 142.8L0 321.3 35.7 357l142.8-142.8L321.3 357l35.7-35.7-142.8-142.8z"></path>
		</symbol>
	
		<symbol id="logo" viewBox="0 0 200 200">
			<path class="st0" d="M72.2 50.7c-5.8-1.3-11-5.1-15.5-11.3v-.6H44.8c0 18.6-9.6 29.3-27.4 29.3V43.8H5.6v42.9c0 25.2 14.1 40.8 39.3 40.8 25.3 0 39.2-15.5 39.2-40.5V44H72.2v6.7zm-27.4 65.6c-17.9 0-27.3-10.8-27.3-29.6V72.8l.1 6.5c19.7 0 32.4-9.4 37.1-25.3 5.4 4.9 11.3 7.8 17.6 8.8V87c-.1 18.6-9.7 29.3-27.5 29.3z"></path><path class="st0" d="M39.6 99.7l-2.6 2.7c6.1 5.9 13.1 5.4 19-.6L53.1 99c-4.3 4.6-9.1 4.9-13.5.7zM41.7 27.8c.3 2.4 2.4 4.3 4.9 4.3 2.5 0 4.6-1.9 4.9-4.3 4.6.7 9.1 2.4 13.6 5.1 3.5-2.1 6.9-4.7 10.2-8L67 16.4c-5.1 5-10.4 8.2-15.7 9.4-.6-2.1-2.5-3.6-4.8-3.6-2.4 0-4.3 1.6-4.8 3.8-5.1-1-10.1-4-14.9-8.8l-7.9 7.9c3.1 3.2 6.3 5.7 9.5 7.7 4.4-2.6 8.8-4.3 13.3-5zM61.7 69.4c-2.7 0-5 2.2-5 5 0 2.7 2.2 5 5 5 2.7 0 5-2.2 5-5-.1-2.8-2.3-5-5-5zM6.2 154.6l2.3 1 7.6-13.8 7.7 13.8 2.3-1-9.9-17.5zM42.6 146.7c0 4-2.1 6.3-5.9 6.3-3.8 0-5.9-2.3-5.9-6.3v-9.2h-2.5v9.2c0 5.4 3 8.7 8.4 8.7s8.4-3.3 8.4-8.7v-9.2h-2.5v9.2zM70.6 155.1h10.9v-2.3h-8.4v-5.4h8.4V145h-8.4v-5.3h8.4v-2.3H70.6z"></path><path class="st0" d="M66.1 151.3V137.4h-2.5v9.2c0 4-2.1 6.3-5.9 6.3-3.8 0-5.9-2.3-5.9-6.3v-9.2h-2.5v9.2c0 5.4 3 8.7 8.4 8.7 2.6 0 4.6-.8 6-2.1.7 4.3 3.6 6.8 8.3 6.8v-2.4c-3.9.1-5.9-2.3-5.9-6.3zM99.9 146.7c0 4-2.1 6.3-5.9 6.3-3.8 0-5.9-2.3-5.9-6.3v-9.2h-2.5v9.2c0 5.4 3 8.7 8.4 8.7s8.4-3.3 8.4-8.7v-9.2h-2.5v9.2zM100.1 132.9l-1.8-1.8c-2.8 2.8-5.9 3-8.6.3l-1.7 1.7c3.8 3.9 8.3 3.6 12.1-.2zM114.7 152.9c-3.9 0-7.2-3-7.2-6.7s3.3-6.7 7.2-6.7c2 0 3.9 1 6.4 3.1l1.9-1.7c-3.1-2.7-5.6-3.9-8.3-3.9-5.4 0-9.8 4.1-9.8 9.1s4.4 9.1 9.9 9.1c2.7 0 5.1-1 8.3-3.9l-1.9-1.7c-2.7 2.5-4.5 3.3-6.5 3.3zM123.8 139.6h6.8V155h2.5v-15.4h6.8v-2.3h-16.1zM161.4 154.6l2.3 1 7.6-13.9 7.7 13.9 2.3-1-9.9-17.6zM189.2 144.7h-2.8v-7.2h-2.5v17.7h5.3c3.3 0 5.8-2.1 5.8-5.2 0-3.2-2.6-5.3-5.8-5.3zm0 8.2h-2.7V147h2.7c1.7 0 3.2 1.1 3.2 2.9 0 1.9-1.5 3-3.2 3zM156.6 146.6c0 4-2.1 6.3-5.9 6.3-3.8 0-5.9-2.3-5.9-6.3v-9.2h-2.5v9.2c0 5.4 3 8.7 8.4 8.7s8.4-3.3 8.4-8.7v-9.2h-2.5v9.2zM195 52.3c0-6-5.4-11-11.9-11-1.2 0-2.3.2-3.5.5V18.7h-11.9v10.6c-7.8.1-14.9-3.9-20.8-11.9v-.6H135c0 16.7-7.7 27-22.1 28.9V18.6H101v42.9c0 25.2 14.1 40.8 39.3 40.8 25 0 38.8-15.1 39.1-39.6 1.2.4 2.3.6 3.5.6 6.7 0 12.1-5 12.1-11zm-54.7 38.8c-17.8 0-27.3-10.8-27.3-29.6v-4.4c16.8-1.5 27.7-10.6 31.9-25.1 6.9 6.2 14.6 9.3 22.8 9.3v20.5c.1 18.6-9.5 29.3-27.4 29.3zm41.4-34.9c-.7 0-1.4-.2-2.1-.5v-8.2c.7-.4 1.4-.5 2.1-.5 2.7 0 4.9 2.1 4.9 4.6.1 2.5-2.2 4.6-4.9 4.6zM134.9 116.6c.3 2.4 2.4 4.3 4.9 4.3 2.5 0 4.6-1.9 4.9-4.3 4.6.7 9.1 2.4 13.6 5.1 3.5-2.1 6.9-4.7 10.2-8l-8.3-8.5c-5.1 5-10.4 8.2-15.7 9.4-.6-2.1-2.5-3.6-4.8-3.6s-4.3 1.6-4.8 3.8c-5.1-1-10.1-4-14.9-8.8l-7.9 7.9c3.1 3.2 6.3 5.7 9.5 7.7 4.5-2.6 8.9-4.3 13.3-5z"></path><path class="st0" d="M130 77.7l-2.6 2.7c6.1 5.9 13.1 5.4 19-.6l-2.9-2.8c-4.4 4.6-9.2 4.9-13.5.7zM152 47.4c-2.7 0-5 2.2-5 5 0 2.7 2.2 5 5 5 2.7 0 5-2.2 5-5-.1-2.8-2.3-5-5-5z"></path>
		</symbol>
	
		<symbol id="shopping-basket" viewBox="0 0 512 512">
			<path d="M488.542 174.916H293.737V27.028c0-10.686-8.693-19.378-19.378-19.378h-36.717c-10.686 0-19.378 8.693-19.378 19.378v147.888H23.458C10.524 174.916 0 185.439 0 198.375v50.57c0 12.936 10.524 23.458 23.458 23.458h3.375l26.437 187.89c3.534 25.117 25.327 44.057 50.691 44.057h304.076c25.365 0 47.157-18.941 50.691-44.057l26.438-187.891h3.375c12.936 0 23.458-10.523 23.458-23.458v-50.57c.001-12.935-10.521-23.458-23.457-23.458zM238.661 28.048h34.677v194.805h-34.677V28.048zM438.53 457.451c-2.125 15.108-15.235 26.502-30.492 26.502H103.961c-15.257 0-28.366-11.393-30.492-26.502L47.432 272.402h417.135L438.53 457.451zm53.072-208.507a3.064 3.064 0 0 1-3.06 3.06H23.458a3.064 3.064 0 0 1-3.06-3.06v-50.57a3.064 3.064 0 0 1 3.06-3.06h194.805v28.558c0 10.686 8.693 19.378 19.378 19.378h36.717c10.686 0 19.378-8.693 19.378-19.378v-28.558h194.805a3.064 3.064 0 0 1 3.06 3.06v50.57z"></path><path d="M110.151 296.287c-5.633 0-10.199 4.567-10.199 10.199v142.789c0 5.632 4.566 10.199 10.199 10.199s10.199-4.567 10.199-10.199V306.486c.001-5.632-4.566-10.199-10.199-10.199zM168.491 296.287c-5.633 0-10.199 4.567-10.199 10.199v142.789c0 5.632 4.566 10.199 10.199 10.199s10.199-4.567 10.199-10.199V306.486c0-5.632-4.566-10.199-10.199-10.199zM226.83 296.287c-5.633 0-10.199 4.567-10.199 10.199v142.789c0 5.632 4.566 10.199 10.199 10.199s10.199-4.567 10.199-10.199V306.486c0-5.632-4.566-10.199-10.199-10.199zM285.17 296.287c-5.632 0-10.199 4.567-10.199 10.199v142.789c0 5.632 4.566 10.199 10.199 10.199 5.632 0 10.199-4.567 10.199-10.199V306.486c0-5.632-4.567-10.199-10.199-10.199zM343.509 296.287c-5.632 0-10.199 4.567-10.199 10.199v142.789c0 5.632 4.566 10.199 10.199 10.199 5.632 0 10.199-4.567 10.199-10.199V306.486c0-5.632-4.567-10.199-10.199-10.199zM401.849 296.287c-5.632 0-10.199 4.567-10.199 10.199v8.164c0 5.632 4.567 10.199 10.199 10.199s10.199-4.567 10.199-10.199v-8.164c0-5.632-4.567-10.199-10.199-10.199zM401.849 343.204c-5.632 0-10.199 4.567-10.199 10.199v95.871c0 5.632 4.567 10.199 10.199 10.199s10.199-4.567 10.199-10.199v-95.871c0-5.632-4.567-10.199-10.199-10.199z"></path>
		</symbol>
	
</svg>
